<?xml version="1.0" encoding="UTF-8"?>
<svg id="_레이어_1" data-name="레이어_1" xmlns="http://www.w3.org/2000/svg" version="1.1" viewBox="0 0 32 32">
  <!-- Generator: Adobe Illustrator 29.8.1, SVG Export Plug-In . SVG Version: 2.1.1 Build 2)  -->
  <defs>
    <style>
      .st0 {
        fill: #231815;
      }
    </style>
  </defs>
  <path class="st0" d="M18.11,16.81l-1.58,4.63,2.42,7.98h-3.57l-1.91-6.84v6.84h-3.47v-10.68s-.07.08-.11.12c-.7.69-1.79,1.04-3.26,1.04-1.6,0-2.76-.41-3.48-1.24-.68-.76-1.01-1.91-1.01-3.46v-.93h3.37v1.79c0,.56.07.95.22,1.15.13.18.38.28.76.28s.63-.12.81-.36c.17-.22.26-.54.26-.97,0-.45-.04-.83-.12-1.14-.06-.31-.15-.55-.28-.71-.16-.17-.39-.39-.7-.66-.39-.33-.79-.64-1.2-.91l-.74-.52c-.93-.63-1.53-1.14-1.81-1.52-.42-.57-.64-1.36-.64-2.35C.85,10.59.17,13.14.17,15.86c0,8.74,7.09,15.83,15.83,15.83,1.08,0,2.14-.11,3.16-.31v-11.21l-1.04-3.35Z"/>
  <path class="st0" d="M9.64,5.12c.66.64,1,1.73,1,3.27v.55h-3.37v-1.09c0-.53-.07-.88-.21-1.05-.1-.16-.33-.24-.67-.24s-.57.1-.71.31c-.15.2-.22.51-.22.93,0,.55.09.95.28,1.19.16.2.59.52,1.29.98l.14.09c.83.52,1.53,1.05,2.1,1.59.44.43.78.83,1.02,1.22.22.33.38.7.48,1.11.07.26.12.56.15.89h2.56v6.16l2.02-6.16h2.01L12.98.32c-2.94.57-5.58,1.95-7.7,3.89.3-.04.63-.05.98-.05,1.59,0,2.72.32,3.38.96Z"/>
  <path class="st0" d="M26.24,20.16v7.76c3.42-2.9,5.59-7.23,5.59-12.07,0-2.68-.66-5.2-1.84-7.4l-3.75,11.71Z"/>
  <path class="st0" d="M22.53,14.04c.65-2.49,1.24-4.91,1.74-7.25.29-1.22.58-2.5.88-3.84-1.59-1.13-3.39-1.97-5.34-2.45.49,2.92.92,5.34,1.3,7.24.46,2.32.93,4.42,1.42,6.31Z"/>
</svg>