<?xml version="1.0" encoding="UTF-8"?>
<svg id="_레이어_1" data-name="레이어_1" xmlns="http://www.w3.org/2000/svg" version="1.1" viewBox="0 0 15 15">
  <!-- Generator: Adobe Illustrator 29.8.1, SVG Export Plug-In . SVG Version: 2.1.1 Build 2)  -->
  <defs>
    <style>
      .st0 {
        fill: #231815;
      }
    </style>
  </defs>
  <path class="st0" d="M8.48,7.88l-.73,2.17,1.12,3.73h-1.66l-.88-3.2v3.2h-1.61v-4.99s-.03.04-.05.06c-.32.32-.83.48-1.51.48-.74,0-1.28-.19-1.61-.58-.31-.35-.47-.89-.47-1.62v-.43h1.56v.84c0,.26.03.44.1.54.06.09.18.13.35.13s.29-.06.37-.17c.08-.1.12-.25.12-.45,0-.21-.02-.39-.06-.53-.03-.15-.07-.26-.13-.33-.07-.08-.18-.18-.33-.31-.18-.16-.37-.3-.56-.43l-.34-.24c-.43-.3-.71-.53-.84-.71-.2-.27-.29-.64-.3-1.1C.48,4.97.16,6.16.16,7.43c0,4.09,3.28,7.4,7.34,7.4.5,0,.99-.05,1.46-.15v-5.24l-.48-1.57Z"/>
  <path class="st0" d="M4.55,2.41c.31.3.46.81.46,1.53v.26h-1.56v-.51c0-.25-.03-.41-.1-.49-.05-.07-.15-.11-.31-.11s-.26.05-.33.15c-.07.09-.1.24-.1.43,0,.26.04.44.13.56.07.09.27.24.6.46l.06.04c.38.24.71.49.97.74.2.2.36.39.47.57.1.16.18.33.22.52.03.12.06.26.07.42h1.18v2.88l.94-2.88h.93L6.1.16c-1.36.27-2.59.91-3.57,1.82.14-.02.29-.03.45-.03.74,0,1.26.15,1.57.45Z"/>
  <path class="st0" d="M12.25,9.45v3.63c1.58-1.36,2.59-3.38,2.59-5.65,0-1.25-.31-2.43-.85-3.46l-1.74,5.48Z"/>
  <path class="st0" d="M10.53,6.58c.3-1.16.57-2.3.81-3.39.13-.57.27-1.17.41-1.8-.74-.53-1.57-.92-2.48-1.15.23,1.37.43,2.5.6,3.39.21,1.09.43,2.07.66,2.95Z"/>
</svg>